<?xml version="1.0" encoding="UTF-8"?>
<!DOCTYPE svg PUBLIC "-//W3C//DTD SVG 1.1//EN" "http://www.w3.org/Graphics/SVG/1.1/DTD/svg11.dtd">
<!-- Creator: CorelDRAW -->
<svg xmlns="http://www.w3.org/2000/svg" xml:space="preserve" width="2048px" height="2048px" style="shape-rendering:geometricPrecision; text-rendering:geometricPrecision; image-rendering:optimizeQuality; fill-rule:evenodd; clip-rule:evenodd"
viewBox="0 0 2048 2048"
 xmlns:xlink="http://www.w3.org/1999/xlink">
 <defs>
  <style type="text/css">
   <![CDATA[
    .fil2 {fill:none}
    .fil20 {fill:#1B7091}
    .fil16 {fill:#2586AD}
    .fil17 {fill:#3498BF}
    .fil18 {fill:#4AA7CC}
    .fil12 {fill:#4DA63A}
    .fil19 {fill:#4FB9E3}
    .fil1 {fill:#512DA8}
    .fil13 {fill:#5CBD46}
    .fil14 {fill:#65D14D}
    .fil15 {fill:#74E85A}
    .fil0 {fill:#7E57C2}
    .fil11 {fill:#E8211E}
    .fil7 {fill:#F0302D}
    .fil3 {fill:#FA7E0A}
    .fil8 {fill:#FF4D4A}
    .fil9 {fill:#FF6461}
    .fil10 {fill:#FF8E8C}
    .fil4 {fill:#FF9100}
    .fil5 {fill:#FFAB40}
    .fil6 {fill:#FFD180}
   ]]>
  </style>
   <clipPath id="id0">
    <path d="M1024 0c565.539,0 1024,458.461 1024,1024 0,565.539 -458.461,1024 -1024,1024 -565.539,0 -1024,-458.461 -1024,-1024 0,-565.539 458.461,-1024 1024,-1024z"/>
   </clipPath>
 </defs>
 <g id="Layer_x0020_1">
  <metadata id="CorelCorpID_0Corel-Layer"/>
  <path class="fil0" d="M1024 0c565.539,0 1024,458.461 1024,1024 0,565.539 -458.461,1024 -1024,1024 -565.539,0 -1024,-458.461 -1024,-1024 0,-565.539 458.461,-1024 1024,-1024z"/>
  <g style="clip-path:url(#id0)">
   <g id="_432897520">
    <g>
     <polygon id="_4345464481" class="fil1" points="1542.6,912 2678.48,2047.88 2678.48,2271.88 1542.6,1136 "/>
     <polygon id="_434546760" class="fil1" points="979.373,825.636 2115.25,1961.52 2115.25,2151.11 979.373,1015.23 "/>
     <polygon id="_434546856" class="fil1" points="1263.76,1128.94 2399.64,2264.82 2399.64,2416.51 1263.76,1280.63 "/>
     <polygon id="_434547096" class="fil1" points="694.986,825.635 1830.87,1961.52 1830.87,2151.11 694.986,1015.23 "/>
     <polygon id="_434547456" class="fil1" points="1542.6,463.999 2678.48,1599.88 2678.48,1823.88 1542.6,688 "/>
     <polygon id="_434547240" class="fil1" points="1542.6,688 2678.48,1823.88 2678.48,2047.88 1542.6,912 "/>
     <polygon id="_434547312" class="fil1" points="979.373,636.044 2115.25,1771.93 2115.25,1961.52 979.373,825.636 "/>
     <polygon id="_434547360" class="fil1" points="694.986,1015.23 1830.87,2151.11 1830.87,2340.7 694.986,1204.82 "/>
     <polygon id="_434547480" class="fil1" points="979.373,1015.23 2115.25,2151.11 2115.25,2340.7 979.373,1204.82 "/>
     <polygon id="_434547528" class="fil1" points="694.986,1204.82 1830.87,2340.7 1830.87,2530.29 694.986,1394.41 "/>
     <polygon id="_434547576" class="fil1" points="1263.76,977.257 2399.64,2113.14 2399.64,2264.82 1263.76,1128.94 "/>
     <polygon id="_434547024" class="fil1" points="1263.76,1280.63 2399.64,2416.51 2399.64,2568.2 1263.76,1432.31 "/>
     <polygon id="_434547960" class="fil1" points="979.373,1204.82 2115.25,2340.7 2115.25,2530.29 979.373,1394.41 "/>
     <polygon id="_434547864" class="fil1" points="1263.76,1432.31 2399.64,2568.2 2399.64,2719.88 1263.76,1584 "/>
     <polygon id="_434547720" class="fil1" points="979.373,1394.41 2115.25,2530.29 2115.25,2719.88 979.373,1584 "/>
     <polygon id="_434548392" class="fil1" points="694.986,1394.41 1830.87,2530.29 1830.87,2719.88 694.986,1584 "/>
     <polygon id="_434548416" class="fil1" points="1542.6,1136 2678.48,2271.88 2678.48,2495.88 1542.6,1360 "/>
     <polygon id="_434548224" class="fil1" points="1263.76,1584 2399.64,2719.88 2210.05,2719.88 1074.17,1584 "/>
     <polygon id="_434547744" class="fil1" points="979.373,1584 2115.25,2719.88 1925.66,2719.88 789.784,1584 "/>
     <polygon id="_434548368" class="fil1" points="694.986,1584 1830.87,2719.88 1641.28,2719.88 505.396,1584 "/>
     <polygon id="_434548320" class="fil1" points="1542.6,1360 2678.48,2495.88 2678.48,2719.88 1542.6,1584 "/>
     <polygon id="_434548728" class="fil1" points="1542.6,1584 2678.48,2719.88 2488.89,2719.88 1353.01,1584 "/>
    </g>
    <path id="_432898096" class="fil1" d="M1542.6 912l0 224.001 0 224 0 224 -189.59 0 0 -224 0 -224.001 0 -224 0 -224.001 0 -224 189.59 0 0 224.001 0 224zm-278.842 216.943l0 151.686 0 151.687 0 151.686 -189.591 0 0 -151.687 0 -151.686 0 -151.686 0 -151.686 189.591 0 0 151.686zm-284.387 -303.306l0 189.591 0 189.592 0 189.591 0 189.591 -189.59 0 0 -189.591 0 -189.592 0 -189.591 0 -189.592 0 -189.591 189.59 0 0 189.592zm-284.387 379.181l0 189.592 0 189.591 -189.59 0 0 -189.592 0 -189.591 0 -189.591 0 -189.592 189.59 0 0 189.592 0 189.591z"/>
   </g>
  </g>
  <path class="fil2" d="M1024 0c565.539,0 1024,458.461 1024,1024 0,565.539 -458.461,1024 -1024,1024 -565.539,0 -1024,-458.461 -1024,-1024 0,-565.539 458.461,-1024 1024,-1024z"/>
  <rect class="fil3" x="505.396" y="1394.41" width="189.59" height="189.591"/>
  <rect class="fil4" x="505.396" y="1204.82" width="189.59" height="189.591"/>
  <rect class="fil5" x="505.396" y="1015.23" width="189.59" height="189.591"/>
  <rect class="fil6" x="505.396" y="825.635" width="189.59" height="189.591"/>
  <rect class="fil7" x="789.784" y="1204.82" width="189.59" height="189.591"/>
  <rect class="fil8" x="789.784" y="1015.23" width="189.59" height="189.591"/>
  <rect class="fil9" x="789.784" y="825.636" width="189.59" height="189.591"/>
  <rect class="fil10" x="789.784" y="636.044" width="189.59" height="189.591"/>
  <rect class="fil11" x="789.784" y="1394.41" width="189.59" height="189.591"/>
  <rect class="fil12" x="1074.17" y="1432.31" width="189.59" height="151.686"/>
  <rect class="fil13" x="1074.17" y="1280.63" width="189.59" height="151.686"/>
  <rect class="fil14" x="1074.17" y="1128.94" width="189.59" height="151.686"/>
  <rect class="fil15" x="1074.17" y="977.256" width="189.59" height="151.686"/>
  <rect class="fil16" x="1353.01" y="1136" width="189.59" height="224"/>
  <rect class="fil17" x="1353.01" y="911.999" width="189.59" height="224"/>
  <rect class="fil18" x="1353.01" y="688" width="189.59" height="224"/>
  <rect class="fil19" x="1353.01" y="463.999" width="189.59" height="224"/>
  <rect class="fil20" x="1353.01" y="1360" width="189.59" height="224"/>
 </g>
</svg>
