<svg xmlns="http://www.w3.org/2000/svg" viewBox="0 0 700 600">
  <title>خريطة ليبيا</title>
  <style>
    .blink {
      fill: red;
      animation: blink 1s infinite;
    }
    @keyframes blink {
      0%, 100% { opacity: 1; }
      50% { opacity: 0; }
    }
    text {
      font-family: "Arial", sans-serif;
      font-size: 16px;
      fill: #333;
    }
  </style>
  <path d="M244.84,454.72L213.53,471.17L188.63,446.86L118.62,427.78L99.20,400.06L64.26,379.50L43.57,387.61L27.83,362.93L26.17,343.96L0.00,311.70L17.57,293.21L13.70,265.38L19.33,241.16L16.13,220.98L23.93,184.87L21.52,164.31L7.20,125.23L28.80,114.97L32.63,96.27L27.92,77.94L58.31,60.88L71.94,46.70L93.51,34.00L96.01,0.00L148.00,15.23L166.58,11.43L203.56,18.81L262.29,38.59L283.02,77.93L322.75,86.52L385.13,105.05L432.28,127.05L453.86,115.57L475.07,95.21L464.76,61.31L478.64,39.78L510.53,19.04L541.00,13.00L600.88,22.06L615.97,41.85L632.45,42.03L646.54,49.58L690.52,54.78L701.30,69.39L685.28,90.63L692.13,109.56L680.73,136.88L694.01,172.54L694.01,329.93L694.01,492.91L694.01,581.30L643.11,581.43L642.57,600.00L466.04,515.26L289.52,430.52L244.84,454.72Z" fill="#f2f2f2" stroke="#333" stroke-width="2" />
  <!-- Tripoli -->
  <circle class="blink" cx="171.37" cy="11.06" r="10" />
  <text x="171.37" y="31.06" text-anchor="middle">طرابلس</text>
  <!-- Misrata -->
  <circle class="blink" cx="255.51" cy="33.71" r="6" />
  <text x="255.51" y="53.71" text-anchor="middle">مصراتة</text>
  <!-- Benghazi -->
  <circle class="blink" cx="476.30" cy="45.04" r="6" />
  <text x="476.30" y="65.04" text-anchor="middle">بنغازي</text>
</svg>
